# xmcd CD database file
#
# Track frame offsets:
#	150
#	19182
#	37555
#	54652
#	71930
#	90147
#	112935
#	134782
#	158480
#	186695
#	205617
#	220717
#	243537
#
# Disc length: 3536 seconds
#
# Revision: 0
# Processed by: cddbd v1.5.1PL0 Copyright (c) Steve Scherf et al.
# Submitted via: CDex 1.50
#
DISCID=af0dce0d
DTITLE=James Marlin - Mary Three
DYEAR=1999
DGENRE=New Age
TTITLE0=These Three Things (Mary Three Epilogue)
TTITLE1=Mary Two
TTITLE2=See
TTITLE3=Ocean Shore
TTITLE4=(Unknown Title)
TTITLE5=2 A.M. South
TTITLE6=Through A Boy's Eyes
TTITLE7=Stephanie
TTITLE8=Whispering Wind
TTITLE9=She Said So
TTITLE10=Mary One
TTITLE11=Life Times
TTITLE12=Let's Fly
EXTD=YEAR: 1999
EXTT0=
EXTT1=
EXTT2=
EXTT3=
EXTT4=
EXTT5=
EXTT6=
EXTT7=
EXTT8=
EXTT9=
EXTT10=
EXTT11=
EXTT12=
PLAYORDER=
